<svg width="44" height="44" viewBox="0 0 44 44" fill="none" xmlns="http://www.w3.org/2000/svg">
<g clip-path="url(#clip0_1786_12842)">
<path d="M23.6328 30.6143C23.3978 30.6143 23.1751 30.5617 22.9648 30.4565C22.7546 30.3576 22.535 30.1999 22.3062 29.9834L18.4282 26.3096C18.3664 26.2601 18.2952 26.2354 18.2148 26.2354H15.5801C14.9059 26.2354 14.3864 26.0498 14.0215 25.6787C13.6628 25.3076 13.4834 24.7603 13.4834 24.0366V20.5947C13.4834 19.8773 13.6628 19.333 14.0215 18.9619C14.3864 18.5908 14.9059 18.4053 15.5801 18.4053H18.2148C18.2952 18.4053 18.3664 18.3774 18.4282 18.3218L22.3062 14.6943C22.5597 14.4469 22.7824 14.2707 22.9741 14.1655C23.172 14.0604 23.3854 14.0078 23.6143 14.0078C23.973 14.0078 24.2637 14.1284 24.4863 14.3696C24.7152 14.6108 24.8296 14.9046 24.8296 15.251V29.4175C24.8296 29.7576 24.7183 30.0422 24.4956 30.271C24.2729 30.4998 23.9854 30.6143 23.6328 30.6143ZM28.1323 26.4209C27.9097 26.2725 27.7798 26.0745 27.7427 25.8271C27.7118 25.5798 27.7829 25.3231 27.9561 25.0571C28.2096 24.686 28.4076 24.2655 28.5498 23.7954C28.6921 23.3192 28.7632 22.8213 28.7632 22.3018C28.7632 21.7822 28.6921 21.2843 28.5498 20.8081C28.4137 20.3319 28.2158 19.9113 27.9561 19.5464C27.7767 19.2866 27.7056 19.033 27.7427 18.7856C27.7798 18.5321 27.9097 18.3311 28.1323 18.1826C28.3302 18.0527 28.5436 18.0094 28.7725 18.0527C29.0013 18.096 29.1838 18.2166 29.3198 18.4146C29.6971 18.9155 29.9909 19.5062 30.2012 20.1865C30.4115 20.8607 30.5166 21.5658 30.5166 22.3018C30.5166 23.0378 30.4115 23.7428 30.2012 24.417C29.9909 25.0911 29.6971 25.6787 29.3198 26.1797C29.1838 26.3838 29.0013 26.5075 28.7725 26.5508C28.5436 26.5879 28.3302 26.5446 28.1323 26.4209Z" fill="white" fill-opacity="0.96"/>
</g>
<defs>
<clipPath id="clip0_1786_12842">
<rect width="44" height="44" rx="22" fill="white"/>
</clipPath>
</defs>
</svg>
