<svg width="44" height="44" viewBox="0 0 44 44" fill="none" xmlns="http://www.w3.org/2000/svg">
<path d="M13.95 25.7C13.65 25.53 13.42 25.3 13.25 25.01C13.08 24.72 13 24.41 13 24.06V16.62C13 16.27 13.08 15.95 13.25 15.66C13.42 15.37 13.65 15.14 13.95 14.97L20.39 11.27C20.69 11.09 21 11 21.33 11C21.66 11 21.98 11.09 22.28 11.27L28.72 14.98C29.02 15.15 29.25 15.38 29.42 15.67C29.59 15.96 29.67 16.28 29.67 16.63V24.07C29.67 24.41 29.59 24.73 29.42 25.02C29.25 25.31 29.02 25.54 28.72 25.71L22.28 29.44C21.98 29.62 21.66 29.71 21.33 29.71C21 29.71 20.69 29.62 20.39 29.44L13.95 25.7ZM14.05 25.57L13.49 24.31L15.43 23.21L16.14 24.38L14.06 25.58L14.05 25.57ZM20.67 28.04V21.04L14.34 17.44V23.83C14.34 24.2 14.5 24.48 14.83 24.67L20.54 27.97C20.54 27.97 20.6 28.01 20.61 28.02C20.62 28.03 20.64 28.04 20.67 28.05V28.04ZM21.34 19.85L27.92 16.1C27.92 16.1 27.84 16.02 27.8 15.99L21.83 12.54C21.51 12.35 21.18 12.35 20.86 12.54L14.89 15.99C14.89 15.99 14.82 16.03 14.81 16.04L14.76 16.09L21.35 19.84L21.34 19.85ZM16.86 23.96L16.18 22.78L18.09 21.69L18.78 22.87L16.86 23.96ZM19.52 22.45L18.82 21.28L20.66 20.23V18.1H22V20.23L23.84 21.28L23.15 22.45L21.33 21.41L19.51 22.45H19.52ZM20.67 14.21V11.68H22.01V14.21H20.67ZM20.67 17.26V15.06H22.01V17.26H20.67ZM22 28.04C22 28.04 22.07 28 22.09 27.99C22.11 27.98 22.14 27.96 22.19 27.94L27.85 24.67C28.17 24.48 28.33 24.2 28.33 23.83V17.44L22 21.04V28.04ZM23.89 22.87L24.58 21.69L26.49 22.78L25.82 23.96L23.89 22.87ZM26.53 24.37L27.24 23.2L29.18 24.3L28.62 25.56L26.54 24.36L26.53 24.37Z" fill="white"/>
<path d="M21.35 34.6388C21.18 34.6388 21.01 34.6388 20.83 34.6288C17.82 34.4988 16 33.2188 15.18 32.4788C14.92 32.2388 14.9 31.8288 15.14 31.5588C15.38 31.2888 15.79 31.2788 16.06 31.5188C16.75 32.1488 18.29 33.2188 20.89 33.3288C24.08 33.4688 25.65 32.1288 25.82 31.9788C26.08 31.7388 26.5 31.7588 26.74 32.0288C26.98 32.2988 26.95 32.7088 26.69 32.9488C26.36 33.2388 24.62 34.6388 21.36 34.6388H21.35Z" fill="white"/>
<path d="M24.51 31.7988L25.91 34.5288C26.05 34.7988 26.22 34.9187 26.42 34.8987C26.62 34.8787 26.79 34.7288 26.92 34.4688L28.08 32.1487C28.18 31.9487 28.19 31.7887 28.13 31.6687C28.07 31.5487 27.93 31.4687 27.71 31.4287L25.15 31.0188C24.86 30.9688 24.65 31.0187 24.51 31.1687C24.37 31.3187 24.37 31.5288 24.51 31.7888V31.7988Z" fill="white"/>
</svg>
