<svg width="44" height="44" viewBox="0 0 44 44" fill="none" xmlns="http://www.w3.org/2000/svg">
<g clip-path="url(#clip0_1786_12798)">
<path d="M22 30.3452C20.7507 30.3452 19.5662 30.1937 18.4468 29.8906C17.3335 29.5876 16.3037 29.1886 15.3574 28.6938C14.4111 28.1929 13.5607 27.6424 12.8062 27.0425C12.0578 26.4425 11.4176 25.8426 10.8857 25.2427C10.36 24.6366 9.95492 24.0768 9.67041 23.5635C9.39209 23.0439 9.25293 22.6265 9.25293 22.311C9.25293 21.9956 9.39209 21.5812 9.67041 21.0679C9.95492 20.5545 10.36 19.9979 10.8857 19.3979C11.4176 18.7918 12.0609 18.1888 12.8154 17.5889C13.57 16.9889 14.4204 16.4416 15.3667 15.9468C16.313 15.4458 17.3428 15.0438 18.4561 14.7407C19.5755 14.4377 20.7568 14.2861 22 14.2861C23.2679 14.2861 24.4616 14.4377 25.5811 14.7407C26.7005 15.0438 27.7334 15.4458 28.6797 15.9468C29.6322 16.4416 30.4795 16.9889 31.2217 17.5889C31.9701 18.1888 32.6071 18.7918 33.1328 19.3979C33.6585 19.9979 34.0575 20.5545 34.3296 21.0679C34.6079 21.5812 34.7471 21.9956 34.7471 22.311C34.7471 22.6265 34.6079 23.0439 34.3296 23.5635C34.0575 24.0768 33.6585 24.6366 33.1328 25.2427C32.6071 25.8426 31.9701 26.4425 31.2217 27.0425C30.4795 27.6424 29.6353 28.1929 28.689 28.6938C27.7427 29.1886 26.7067 29.5876 25.5811 29.8906C24.4616 30.1937 23.2679 30.3452 22 30.3452ZM22 28.5547C22.9896 28.5547 23.9359 28.4341 24.8389 28.1929C25.7419 27.9517 26.5892 27.63 27.3809 27.228C28.1725 26.826 28.89 26.39 29.5332 25.9199C30.1764 25.4437 30.73 24.9736 31.1938 24.5098C31.6577 24.0397 32.0133 23.6099 32.2607 23.2202C32.5143 22.8306 32.6411 22.5275 32.6411 22.311C32.6411 22.1317 32.5143 21.8564 32.2607 21.4854C32.0133 21.1143 31.6577 20.6937 31.1938 20.2236C30.73 19.7474 30.1764 19.2681 29.5332 18.7856C28.89 18.3032 28.1725 17.8579 27.3809 17.4497C26.5892 17.0353 25.7419 16.7013 24.8389 16.4478C23.9359 16.1942 22.9896 16.0674 22 16.0674C21.0104 16.0674 20.061 16.1942 19.1519 16.4478C18.2489 16.7013 17.4015 17.0353 16.6099 17.4497C15.8182 17.8579 15.1007 18.3032 14.4575 18.7856C13.8205 19.2681 13.27 19.7474 12.8062 20.2236C12.3423 20.6937 11.9836 21.1143 11.73 21.4854C11.4826 21.8564 11.3589 22.1317 11.3589 22.311C11.3589 22.5275 11.4826 22.8306 11.73 23.2202C11.9836 23.6099 12.3423 24.0397 12.8062 24.5098C13.27 24.9736 13.8205 25.4437 14.4575 25.9199C15.1007 26.39 15.8182 26.826 16.6099 27.228C17.4015 27.63 18.2489 27.9517 19.1519 28.1929C20.061 28.4341 21.0104 28.5547 22 28.5547ZM22.0093 27.3022C21.3166 27.3022 20.6672 27.1724 20.061 26.9126C19.4549 26.6528 18.923 26.2941 18.4653 25.8364C18.0076 25.3787 17.6458 24.8468 17.3799 24.2407C17.1201 23.6346 16.9902 22.9852 16.9902 22.2925C16.9902 21.606 17.1201 20.9596 17.3799 20.3535C17.6458 19.7474 18.0076 19.2155 18.4653 18.7578C18.923 18.3001 19.4549 17.9414 20.061 17.6816C20.6672 17.4219 21.3166 17.292 22.0093 17.292C22.6958 17.292 23.3421 17.4219 23.9482 17.6816C24.5544 17.9414 25.0863 18.3001 25.5439 18.7578C26.0016 19.2155 26.3604 19.7474 26.6201 20.3535C26.8799 20.9596 27.0098 21.606 27.0098 22.2925C27.0098 22.9852 26.8799 23.6346 26.6201 24.2407C26.3604 24.8468 26.0016 25.3787 25.5439 25.8364C25.0863 26.2941 24.5544 26.6528 23.9482 26.9126C23.3421 27.1724 22.6958 27.3022 22.0093 27.3022ZM22 23.9253C22.4453 23.9253 22.8257 23.7676 23.1411 23.4521C23.4627 23.1305 23.6235 22.7471 23.6235 22.3018C23.6235 21.8626 23.4627 21.4854 23.1411 21.1699C22.8257 20.8483 22.4453 20.6875 22 20.6875C21.5547 20.6875 21.1743 20.8483 20.8589 21.1699C20.5435 21.4854 20.3857 21.8626 20.3857 22.3018C20.3857 22.7471 20.5435 23.1305 20.8589 23.4521C21.1743 23.7676 21.5547 23.9253 22 23.9253Z" fill="white" fill-opacity="0.96"/>
</g>
<defs>
<clipPath id="clip0_1786_12798">
<rect width="44" height="44" rx="22" fill="white"/>
</clipPath>
</defs>
</svg>
