<svg width="44" height="44" viewBox="0 0 44 44" fill="none" xmlns="http://www.w3.org/2000/svg">
<g clip-path="url(#clip0_1786_12700)">
<path d="M17.3057 26.2354C16.6253 26.2354 16.112 26.056 15.7656 25.6973C15.4193 25.3385 15.2461 24.8005 15.2461 24.083V20.5576C15.2461 19.8773 15.4038 19.3639 15.7192 19.0176L26.5088 29.7979C26.416 30.07 26.2707 30.2741 26.0728 30.4102C25.881 30.5462 25.6522 30.6143 25.3862 30.6143C25.1574 30.6143 24.9378 30.5617 24.7275 30.4565C24.5173 30.3576 24.2946 30.1999 24.0596 29.9834L20.1353 26.3096C20.0796 26.2601 20.0085 26.2354 19.9219 26.2354H17.3057ZM26.5923 24.5747L20.0981 18.0991H20.3301C20.3734 18.0929 20.4167 18.0682 20.46 18.0249L24.0596 14.6943C24.3193 14.4531 24.5451 14.2799 24.7368 14.1748C24.9347 14.0635 25.1481 14.0078 25.377 14.0078C25.7357 14.0078 26.0264 14.1284 26.249 14.3696C26.4779 14.6108 26.5923 14.9046 26.5923 15.251V24.5747ZM29.8486 31.5049L13.604 15.2881C13.4618 15.1458 13.3906 14.9727 13.3906 14.7686C13.3906 14.5583 13.4618 14.382 13.604 14.2397C13.7463 14.0913 13.9194 14.0202 14.1235 14.0264C14.3338 14.0264 14.5101 14.0975 14.6523 14.2397L30.8784 30.4658C31.0269 30.6081 31.1011 30.7812 31.1011 30.9854C31.1011 31.1895 31.0269 31.3626 30.8784 31.5049C30.7485 31.6533 30.5785 31.7275 30.3682 31.7275C30.1641 31.7275 29.9909 31.6533 29.8486 31.5049Z" fill="black"/>
</g>
<defs>
<clipPath id="clip0_1786_12700">
<rect width="44" height="44" rx="22" fill="white"/>
</clipPath>
</defs>
</svg>
