<svg width="26" height="26" viewBox="0 0 26 26" fill="none" xmlns="http://www.w3.org/2000/svg">
<path d="M18.4093 16.6365H7.5879C7.21971 16.6365 6.86754 16.4553 6.65944 16.1559C6.44333 15.8564 6.3953 15.4703 6.52337 15.1315L8.38829 10.0887C8.54837 9.65531 8.97258 9.36377 9.43681 9.36377H16.5523C17.0246 9.36377 17.4488 9.65531 17.6089 10.0887L19.4738 15.1236C19.6019 15.4703 19.5538 15.8564 19.3377 16.1559C19.1216 16.4553 18.7694 16.6365 18.4013 16.6365H18.4093ZM9.44482 10.1517C9.30875 10.1517 9.18869 10.2305 9.14867 10.3566L7.27574 15.4073C7.23572 15.5097 7.25173 15.62 7.31576 15.7146C7.37979 15.8013 7.48384 15.8564 7.5959 15.8564H18.4173C18.5293 15.8564 18.6334 15.8013 18.6974 15.7146C18.7614 15.62 18.7774 15.5097 18.7374 15.4073L16.8725 10.3723C16.8245 10.2463 16.7044 10.1675 16.5683 10.1675H9.44482V10.1517Z" fill="white"/>
<path d="M12.9257 10.8264H15.8399C15.9394 10.8264 16.0311 10.891 16.0617 10.9877L17.3467 14.7464C17.4156 14.9562 17.2702 15.182 17.0561 15.182H12.9257H8.87185C8.71123 15.182 8.5965 15.0126 8.65004 14.8513L9.95033 10.9877C9.98093 10.891 10.0727 10.8184 10.1722 10.8184H12.9334H10.0115" fill="white"/>
</svg>
