<svg width="44" height="44" viewBox="0 0 44 44" fill="none" xmlns="http://www.w3.org/2000/svg">
<g clip-path="url(#clip0_1786_12760)">
<path d="M22.0186 24.0088C21.4434 24.0088 20.9084 23.8511 20.4136 23.5356C19.9188 23.214 19.5199 22.7842 19.2168 22.2461C18.9137 21.7018 18.7622 21.0957 18.7622 20.4277C18.7622 19.766 18.9137 19.1722 19.2168 18.6465C19.5199 18.1146 19.9188 17.6971 20.4136 17.394C20.9084 17.0848 21.4434 16.9302 22.0186 16.9302C22.5999 16.9302 23.138 17.0817 23.6328 17.3848C24.1276 17.6816 24.5265 18.0929 24.8296 18.6187C25.1326 19.1382 25.2842 19.735 25.2842 20.4092C25.2842 21.0771 25.1326 21.6864 24.8296 22.2368C24.5265 22.7811 24.1276 23.214 23.6328 23.5356C23.138 23.8511 22.5999 24.0088 22.0186 24.0088ZM17.2314 31.0874C16.5264 31.0874 16.0439 30.9884 15.7842 30.7905C15.5244 30.5988 15.3945 30.3236 15.3945 29.9648C15.3945 29.4515 15.5461 28.9134 15.8491 28.3506C16.1584 27.7878 16.6006 27.262 17.1758 26.7734C17.751 26.2848 18.4468 25.8859 19.2632 25.5767C20.0796 25.2674 20.998 25.1128 22.0186 25.1128C23.0452 25.1128 23.9668 25.2674 24.7832 25.5767C25.5996 25.8859 26.2954 26.2848 26.8706 26.7734C27.452 27.262 27.8942 27.7878 28.1973 28.3506C28.5003 28.9134 28.6519 29.4515 28.6519 29.9648C28.6519 30.3236 28.5189 30.5988 28.2529 30.7905C27.9932 30.9884 27.5138 31.0874 26.8149 31.0874H17.2314ZM11.6743 14.7964C11.5197 14.7964 11.3867 14.7407 11.2754 14.6294C11.1641 14.5181 11.1084 14.3851 11.1084 14.2305C11.1084 14.0758 11.1641 13.9429 11.2754 13.8315C11.3867 13.7202 11.5197 13.6646 11.6743 13.6646C11.8289 13.6646 11.9619 13.7202 12.0732 13.8315C12.1846 13.9429 12.2402 14.0758 12.2402 14.2305C12.2402 14.3851 12.1846 14.5181 12.0732 14.6294C11.9619 14.7407 11.8289 14.7964 11.6743 14.7964ZM14.6245 14.7964C14.4699 14.7964 14.3369 14.7407 14.2256 14.6294C14.1143 14.5181 14.0586 14.3851 14.0586 14.2305C14.0586 14.0758 14.1143 13.9429 14.2256 13.8315C14.3369 13.7202 14.4699 13.6646 14.6245 13.6646C14.7729 13.6646 14.9028 13.7202 15.0142 13.8315C15.1255 13.9429 15.1812 14.0758 15.1812 14.2305C15.1812 14.3851 15.1255 14.5181 15.0142 14.6294C14.9028 14.7407 14.7729 14.7964 14.6245 14.7964ZM17.5654 14.7964C17.4108 14.7964 17.2778 14.7407 17.1665 14.6294C17.0552 14.5181 16.9995 14.3851 16.9995 14.2305C16.9995 14.0758 17.0552 13.9429 17.1665 13.8315C17.2778 13.7202 17.4108 13.6646 17.5654 13.6646C17.7201 13.6646 17.853 13.7202 17.9644 13.8315C18.0757 13.9429 18.1313 14.0758 18.1313 14.2305C18.1313 14.3851 18.0757 14.5181 17.9644 14.6294C17.853 14.7407 17.7201 14.7964 17.5654 14.7964ZM20.5249 15.0283C20.3022 15.0283 20.1105 14.951 19.9497 14.7964C19.7951 14.6356 19.7178 14.4469 19.7178 14.2305C19.7178 14.0078 19.7951 13.8192 19.9497 13.6646C20.1105 13.5037 20.3022 13.4233 20.5249 13.4233C20.7414 13.4233 20.9269 13.5037 21.0815 13.6646C21.2424 13.8192 21.3228 14.0078 21.3228 14.2305C21.3228 14.4469 21.2424 14.6356 21.0815 14.7964C20.9269 14.951 20.7414 15.0283 20.5249 15.0283ZM23.4658 15.0283C23.2432 15.0283 23.0514 14.951 22.8906 14.7964C22.736 14.6356 22.6587 14.4469 22.6587 14.2305C22.6587 14.0078 22.736 13.8192 22.8906 13.6646C23.0514 13.5037 23.2432 13.4233 23.4658 13.4233C23.6885 13.4233 23.8771 13.5037 24.0317 13.6646C24.1864 13.8192 24.2637 14.0078 24.2637 14.2305C24.2637 14.4469 24.1864 14.6356 24.0317 14.7964C23.8771 14.951 23.6885 15.0283 23.4658 15.0283ZM26.4253 14.7964C26.2707 14.7964 26.1377 14.7407 26.0264 14.6294C25.915 14.5181 25.8594 14.3851 25.8594 14.2305C25.8594 14.0758 25.915 13.9429 26.0264 13.8315C26.1377 13.7202 26.2707 13.6646 26.4253 13.6646C26.5799 13.6646 26.7129 13.7202 26.8242 13.8315C26.9355 13.9429 26.9912 14.0758 26.9912 14.2305C26.9912 14.3851 26.9355 14.5181 26.8242 14.6294C26.7129 14.7407 26.5799 14.7964 26.4253 14.7964ZM29.3848 14.7964C29.2301 14.7964 29.0941 14.7407 28.9766 14.6294C28.8652 14.5181 28.8096 14.3851 28.8096 14.2305C28.8096 14.0758 28.8652 13.9429 28.9766 13.8315C29.0941 13.7202 29.2301 13.6646 29.3848 13.6646C29.5394 13.6646 29.6693 13.7202 29.7744 13.8315C29.8857 13.9429 29.9414 14.0758 29.9414 14.2305C29.9414 14.3851 29.8857 14.5181 29.7744 14.6294C29.6693 14.7407 29.5394 14.7964 29.3848 14.7964ZM32.3257 14.7964C32.1711 14.7964 32.0381 14.7407 31.9268 14.6294C31.8216 14.5181 31.769 14.3851 31.769 14.2305C31.769 14.0758 31.8216 13.9429 31.9268 13.8315C32.0381 13.7202 32.1711 13.6646 32.3257 13.6646C32.4803 13.6646 32.6133 13.7202 32.7246 13.8315C32.8359 13.9429 32.8916 14.0758 32.8916 14.2305C32.8916 14.3851 32.8359 14.5181 32.7246 14.6294C32.6133 14.7407 32.4803 14.7964 32.3257 14.7964ZM11.6743 18.0156C11.5197 18.0156 11.3867 17.96 11.2754 17.8486C11.1641 17.7373 11.1084 17.6043 11.1084 17.4497C11.1084 17.2951 11.1641 17.1621 11.2754 17.0508C11.3867 16.9395 11.5197 16.8838 11.6743 16.8838C11.8289 16.8838 11.9619 16.9395 12.0732 17.0508C12.1846 17.1621 12.2402 17.2951 12.2402 17.4497C12.2402 17.6043 12.1846 17.7373 12.0732 17.8486C11.9619 17.96 11.8289 18.0156 11.6743 18.0156ZM14.6245 18.2476C14.4019 18.2476 14.2101 18.1702 14.0493 18.0156C13.8947 17.861 13.8174 17.6724 13.8174 17.4497C13.8174 17.2271 13.8947 17.0384 14.0493 16.8838C14.2101 16.7292 14.4019 16.6519 14.6245 16.6519C14.841 16.6519 15.0265 16.7292 15.1812 16.8838C15.342 17.0384 15.4224 17.2271 15.4224 17.4497C15.4224 17.6724 15.342 17.861 15.1812 18.0156C15.0265 18.1702 14.841 18.2476 14.6245 18.2476ZM17.5654 18.2476C17.349 18.2476 17.1603 18.1702 16.9995 18.0156C16.8449 17.861 16.7676 17.6724 16.7676 17.4497C16.7676 17.2271 16.8449 17.0384 16.9995 16.8838C17.1603 16.7292 17.349 16.6519 17.5654 16.6519C17.7819 16.6519 17.9644 16.7261 18.1128 16.8745C18.2674 17.0168 18.3509 17.1899 18.3633 17.394C18.1654 17.66 18.0046 17.9229 17.8809 18.1826C17.7695 18.2259 17.6644 18.2476 17.5654 18.2476ZM26.4253 18.2476C26.3325 18.2476 26.2521 18.2352 26.1841 18.2104C26.0356 17.9074 25.8532 17.6105 25.6367 17.3198C25.6615 17.1343 25.748 16.9766 25.8965 16.8467C26.0511 16.7168 26.2274 16.6519 26.4253 16.6519C26.6479 16.6519 26.8366 16.7292 26.9912 16.8838C27.152 17.0384 27.2324 17.2271 27.2324 17.4497C27.2324 17.6724 27.152 17.861 26.9912 18.0156C26.8366 18.1702 26.6479 18.2476 26.4253 18.2476ZM29.3848 18.2476C29.1621 18.2476 28.9704 18.1702 28.8096 18.0156C28.6549 17.861 28.5776 17.6724 28.5776 17.4497C28.5776 17.2271 28.6549 17.0384 28.8096 16.8838C28.9704 16.7292 29.1621 16.6519 29.3848 16.6519C29.6012 16.6519 29.7868 16.7292 29.9414 16.8838C30.1022 17.0384 30.1826 17.2271 30.1826 17.4497C30.1826 17.6724 30.1022 17.861 29.9414 18.0156C29.7868 18.1702 29.6012 18.2476 29.3848 18.2476ZM32.3257 18.0156C32.1711 18.0156 32.0381 17.96 31.9268 17.8486C31.8216 17.7373 31.769 17.6043 31.769 17.4497C31.769 17.2951 31.8216 17.1621 31.9268 17.0508C32.0381 16.9395 32.1711 16.8838 32.3257 16.8838C32.4803 16.8838 32.6133 16.9395 32.7246 17.0508C32.8359 17.1621 32.8916 17.2951 32.8916 17.4497C32.8916 17.6043 32.8359 17.7373 32.7246 17.8486C32.6133 17.96 32.4803 18.0156 32.3257 18.0156ZM11.6743 21.4761C11.4517 21.4761 11.2599 21.3988 11.0991 21.2441C10.9445 21.0833 10.8672 20.8916 10.8672 20.6689C10.8672 20.4463 10.9445 20.2576 11.0991 20.103C11.2599 19.9422 11.4517 19.8618 11.6743 19.8618C11.8908 19.8618 12.0763 19.9422 12.231 20.103C12.3918 20.2576 12.4722 20.4463 12.4722 20.6689C12.4722 20.8916 12.3918 21.0833 12.231 21.2441C12.0763 21.3988 11.8908 21.4761 11.6743 21.4761ZM14.6245 21.7173C14.3338 21.7173 14.0864 21.6152 13.8823 21.4111C13.6782 21.207 13.5762 20.9596 13.5762 20.6689C13.5762 20.3844 13.6782 20.1401 13.8823 19.936C14.0864 19.7319 14.3338 19.6299 14.6245 19.6299C14.909 19.6299 15.1533 19.7319 15.3574 19.936C15.5615 20.1401 15.6636 20.3844 15.6636 20.6689C15.6636 20.9596 15.5615 21.207 15.3574 21.4111C15.1533 21.6152 14.909 21.7173 14.6245 21.7173ZM16.5264 20.6689C16.5264 20.4092 16.613 20.1834 16.7861 19.9917C16.9593 19.7938 17.1727 19.6763 17.4263 19.6392C17.4077 19.769 17.3923 19.8989 17.3799 20.0288C17.3675 20.1587 17.3613 20.2917 17.3613 20.4277C17.3613 20.8916 17.4139 21.3215 17.519 21.7173C17.2469 21.7049 17.0119 21.5998 16.814 21.4019C16.6222 21.1978 16.5264 20.9535 16.5264 20.6689ZM27.4736 20.6689C27.4736 20.9411 27.3778 21.1792 27.186 21.3833C27.0005 21.5812 26.7778 21.6925 26.5181 21.7173C26.6232 21.3153 26.6758 20.8823 26.6758 20.4185C26.6758 20.134 26.6572 19.8773 26.6201 19.6484C26.8613 19.6979 27.0623 19.8185 27.2231 20.0103C27.3901 20.202 27.4736 20.4215 27.4736 20.6689ZM29.3848 21.7173C29.1003 21.7173 28.8529 21.6152 28.6426 21.4111C28.4385 21.207 28.3364 20.9596 28.3364 20.6689C28.3364 20.3844 28.4385 20.1401 28.6426 19.936C28.8529 19.7319 29.1003 19.6299 29.3848 19.6299C29.6693 19.6299 29.9136 19.7319 30.1177 19.936C30.3218 20.1401 30.4238 20.3844 30.4238 20.6689C30.4238 20.9596 30.3218 21.207 30.1177 21.4111C29.9136 21.6152 29.6693 21.7173 29.3848 21.7173ZM32.3257 21.4761C32.103 21.4761 31.9144 21.3988 31.7598 21.2441C31.6051 21.0833 31.5278 20.8916 31.5278 20.6689C31.5278 20.4463 31.6051 20.2576 31.7598 20.103C31.9144 19.9422 32.103 19.8618 32.3257 19.8618C32.5422 19.8618 32.7308 19.9422 32.8916 20.103C33.0524 20.2576 33.1328 20.4463 33.1328 20.6689C33.1328 20.8916 33.0524 21.0833 32.8916 21.2441C32.7308 21.3988 32.5422 21.4761 32.3257 21.4761ZM11.6743 24.6953C11.4517 24.6953 11.2599 24.618 11.0991 24.4634C10.9445 24.3026 10.8672 24.1139 10.8672 23.8975C10.8672 23.6748 10.9445 23.4862 11.0991 23.3315C11.2599 23.1707 11.4517 23.0903 11.6743 23.0903C11.8908 23.0903 12.0763 23.1707 12.231 23.3315C12.3918 23.4862 12.4722 23.6748 12.4722 23.8975C12.4722 24.1139 12.3918 24.3026 12.231 24.4634C12.0763 24.618 11.8908 24.6953 11.6743 24.6953ZM14.6245 24.9458C14.3338 24.9458 14.0864 24.8438 13.8823 24.6396C13.6782 24.4294 13.5762 24.182 13.5762 23.8975C13.5762 23.613 13.6782 23.3687 13.8823 23.1646C14.0864 22.9543 14.3338 22.8491 14.6245 22.8491C14.909 22.8491 15.1533 22.9543 15.3574 23.1646C15.5615 23.3687 15.6636 23.613 15.6636 23.8975C15.6636 24.182 15.5615 24.4294 15.3574 24.6396C15.1533 24.8438 14.909 24.9458 14.6245 24.9458ZM17.083 24.8066C16.916 24.7201 16.7799 24.5964 16.6748 24.4355C16.5758 24.2686 16.5264 24.0892 16.5264 23.8975C16.5264 23.6191 16.6253 23.381 16.8232 23.1831C17.0273 22.979 17.2686 22.877 17.5469 22.877C17.8623 22.877 18.119 23.0007 18.3169 23.248C18.5148 23.4893 18.5921 23.7645 18.5488 24.0737C18.2891 24.1789 18.0355 24.2933 17.7881 24.417C17.5469 24.5345 17.3118 24.6644 17.083 24.8066ZM26.9448 24.7788C26.716 24.6427 26.4748 24.5129 26.2212 24.3892C25.9738 24.2655 25.7171 24.1572 25.4512 24.0645C25.4017 23.749 25.479 23.4738 25.6831 23.2388C25.8872 22.9976 26.1439 22.877 26.4531 22.877C26.7314 22.877 26.9696 22.979 27.1675 23.1831C27.3716 23.381 27.4736 23.6191 27.4736 23.8975C27.4736 24.083 27.4242 24.2562 27.3252 24.417C27.2262 24.5778 27.0994 24.6984 26.9448 24.7788ZM29.3848 24.9458C29.1003 24.9458 28.8529 24.8438 28.6426 24.6396C28.4385 24.4294 28.3364 24.182 28.3364 23.8975C28.3364 23.613 28.4385 23.3687 28.6426 23.1646C28.8529 22.9543 29.1003 22.8491 29.3848 22.8491C29.6693 22.8491 29.9136 22.9543 30.1177 23.1646C30.3218 23.3687 30.4238 23.613 30.4238 23.8975C30.4238 24.182 30.3218 24.4294 30.1177 24.6396C29.9136 24.8438 29.6693 24.9458 29.3848 24.9458ZM32.3257 24.6953C32.103 24.6953 31.9144 24.618 31.7598 24.4634C31.6051 24.3026 31.5278 24.1139 31.5278 23.8975C31.5278 23.6748 31.6051 23.4862 31.7598 23.3315C31.9144 23.1707 32.103 23.0903 32.3257 23.0903C32.5422 23.0903 32.7308 23.1707 32.8916 23.3315C33.0524 23.4862 33.1328 23.6748 33.1328 23.8975C33.1328 24.1139 33.0524 24.3026 32.8916 24.4634C32.7308 24.618 32.5422 24.6953 32.3257 24.6953ZM11.6743 27.6826C11.5197 27.6826 11.3867 27.627 11.2754 27.5156C11.1641 27.4043 11.1084 27.2713 11.1084 27.1167C11.1084 26.9621 11.1641 26.8291 11.2754 26.7178C11.3867 26.6064 11.5197 26.5508 11.6743 26.5508C11.8289 26.5508 11.9619 26.6064 12.0732 26.7178C12.1846 26.8291 12.2402 26.9621 12.2402 27.1167C12.2402 27.2713 12.1846 27.4043 12.0732 27.5156C11.9619 27.627 11.8289 27.6826 11.6743 27.6826ZM14.2534 27.8311C13.9627 27.6826 13.8174 27.4445 13.8174 27.1167C13.8174 26.9002 13.8947 26.7147 14.0493 26.5601C14.2101 26.3993 14.4019 26.3188 14.6245 26.3188C14.8039 26.3188 14.9678 26.3776 15.1162 26.4951C14.776 26.9157 14.4884 27.361 14.2534 27.8311ZM29.7837 27.8125C29.5425 27.3301 29.2518 26.8817 28.9116 26.4673C29.0539 26.3683 29.2116 26.3188 29.3848 26.3188C29.6012 26.3188 29.7868 26.3993 29.9414 26.5601C30.1022 26.7147 30.1826 26.9002 30.1826 27.1167C30.1826 27.4198 30.0496 27.6517 29.7837 27.8125ZM32.3257 27.6826C32.1711 27.6826 32.0381 27.627 31.9268 27.5156C31.8216 27.4043 31.769 27.2713 31.769 27.1167C31.769 26.9621 31.8216 26.8291 31.9268 26.7178C32.0381 26.6064 32.1711 26.5508 32.3257 26.5508C32.4803 26.5508 32.6133 26.6064 32.7246 26.7178C32.8359 26.8291 32.8916 26.9621 32.8916 27.1167C32.8916 27.2713 32.8359 27.4043 32.7246 27.5156C32.6133 27.627 32.4803 27.6826 32.3257 27.6826ZM11.6743 30.9111C11.5197 30.9111 11.3867 30.8555 11.2754 30.7441C11.1641 30.6328 11.1084 30.4998 11.1084 30.3452C11.1084 30.1906 11.1641 30.0576 11.2754 29.9463C11.3867 29.835 11.5197 29.7793 11.6743 29.7793C11.8289 29.7793 11.9619 29.835 12.0732 29.9463C12.1846 30.0576 12.2402 30.1906 12.2402 30.3452C12.2402 30.4998 12.1846 30.6328 12.0732 30.7441C11.9619 30.8555 11.8289 30.9111 11.6743 30.9111ZM32.3257 30.9111C32.1711 30.9111 32.0381 30.8555 31.9268 30.7441C31.8216 30.6328 31.769 30.4998 31.769 30.3452C31.769 30.1906 31.8216 30.0576 31.9268 29.9463C32.0381 29.835 32.1711 29.7793 32.3257 29.7793C32.4803 29.7793 32.6133 29.835 32.7246 29.9463C32.8359 30.0576 32.8916 30.1906 32.8916 30.3452C32.8916 30.4998 32.8359 30.6328 32.7246 30.7441C32.6133 30.8555 32.4803 30.9111 32.3257 30.9111Z" fill="white" fill-opacity="0.96"/>
</g>
<defs>
<clipPath id="clip0_1786_12760">
<rect width="44" height="44" rx="22" fill="white"/>
</clipPath>
</defs>
</svg>
