<svg width="31" height="31" viewBox="0 0 31 31" fill="none" xmlns="http://www.w3.org/2000/svg">
<path d="M23.728 5.1609C23.5478 5.01641 23.3337 4.96882 23.0889 5.01981L12.9273 7.21429C12.2882 7.35708 11.9686 7.69534 11.9686 8.23079L11.9873 18.9975C12.0383 19.4888 11.8394 19.7777 11.3873 19.8695L9.84722 20.1891C8.87831 20.3965 8.16268 20.7415 7.69693 21.226C7.23288 21.7104 7 22.3173 7 23.0465C7 23.7757 7.25667 24.3945 7.77002 24.8619C8.28337 25.3294 8.94291 25.564 9.75032 25.564C10.1056 25.564 10.4881 25.4943 10.8977 25.3566C11.3074 25.2189 11.6949 24.9962 12.0604 24.6936C12.4259 24.3911 12.7233 23.9916 12.9562 23.4987C13.1891 23.004 13.3047 22.4057 13.3047 21.7019V12.8424C13.3047 12.5909 13.3387 12.4209 13.4067 12.3342C13.4747 12.2475 13.6242 12.1778 13.8571 12.1268L22.2594 10.2876C22.4719 10.2417 22.6724 10.4032 22.6724 10.6191L22.6826 16.6704C22.7336 17.1617 22.5347 17.4507 22.0826 17.5425L20.5425 17.862C19.5736 18.0694 18.858 18.4145 18.3923 18.8989C17.9265 19.3834 17.6953 19.9902 17.6953 20.7194C17.6953 21.4487 17.952 22.0674 18.4654 22.5349C18.9787 23.0023 19.6382 23.2369 20.4457 23.2369C20.8009 23.2369 21.1834 23.1672 21.593 23.0295C22.0027 22.8918 22.3903 22.6691 22.7557 22.3666C23.1212 22.064 23.4187 21.6645 23.6515 21.1716C23.8844 20.6769 24 20.0786 24 19.3749V5.76604C24 5.50766 23.9099 5.30538 23.7297 5.1609H23.728Z" fill="white" fill-opacity="0.96"/>
</svg>
